<svg width="14" height="13" viewBox="0 0 14 13" fill="none" xmlns="http://www.w3.org/2000/svg">
<path d="M5.79229 0.706775L0.554642 5.95682C0.413284 6.09842 0.333292 6.29464 0.333292 6.49995C0.333292 6.70527 0.413284 6.9012 0.554642 7.04308L5.79229 12.2931C6.0778 12.5783 6.52973 12.5675 6.80233 12.2677C7.0748 11.9709 7.06457 11.4943 6.77815 11.2071L2.82908 7.25082H12.9521C13.3464 7.25082 13.6666 6.91456 13.6666 6.5005C13.6666 6.08643 13.3464 5.7508 12.9521 5.7508H2.83094L6.78001 1.79452C7.06599 1.50678 7.07492 1.03022 6.80411 0.7324C6.53033 0.432397 6.10477 0.421772 5.79229 0.706775Z" fill="#007AFF"/>
</svg>
