<svg width="656" height="201" viewBox="0 0 656 201" fill="none" xmlns="http://www.w3.org/2000/svg">
<path d="M303 32.9858C303 24.2378 298.488 15.8476 290.452 9.66204C282.419 3.47433 271.522 0 260.158 0H42.8416C31.4778 0 20.5814 3.47449 12.5482 9.66204C4.51213 15.8476 0 24.2378 0 32.9858V124.149C0 132.897 4.51234 141.288 12.5482 147.475C20.5814 153.661 31.4778 157.135 42.8416 157.135H47.9054L47.9027 191.322C47.9488 193.007 48.59 194.652 49.7581 196.076C50.9236 197.503 52.5699 198.657 54.5231 199.419C56.1069 199.998 57.8347 200.306 59.5869 200.318C62.3063 200.354 64.9468 199.605 66.9873 198.22L133.583 157.135H260.156C271.52 157.135 282.417 153.661 290.45 147.475C298.486 141.287 302.998 132.897 302.998 124.149L303 32.9858ZM279.631 124.149C279.631 128.126 277.58 131.939 273.929 134.751C270.278 137.564 265.325 139.143 260.158 139.143H129.69C126.993 139.208 124.396 139.945 122.29 141.242L71.2718 172.43V148.14C71.2718 145.754 70.0412 143.465 67.8488 141.777C65.6592 140.091 62.6872 139.143 59.5875 139.143H42.8422C37.6752 139.143 32.7226 137.564 29.0715 134.751C25.4203 131.939 23.3693 128.126 23.3693 124.149V32.9858C23.3693 29.0092 25.4203 25.1958 29.0715 22.3845C32.7226 19.5731 37.675 17.9917 42.8422 17.9917H260.159C265.326 17.9917 270.279 19.5731 273.93 22.3845C277.581 25.1958 279.632 29.0091 279.632 32.9858L279.631 124.149Z" fill="#6366F1"/>
<path d="M86.3727 80.4C87.8394 78.8 89.3394 77.1333 90.8727 75.4C92.4727 73.6667 94.006 71.9667 95.4727 70.3C96.9394 68.5667 98.306 66.9333 99.5727 65.4C100.906 63.8667 102.039 62.5333 102.973 61.4H120.673C117.139 65.4667 113.673 69.3667 110.273 73.1C106.939 76.7667 103.273 80.5667 99.2727 84.5C101.273 86.3 103.339 88.4667 105.473 91C107.606 93.4667 109.673 96.0333 111.673 98.7C113.673 101.367 115.506 104.033 117.173 106.7C118.839 109.367 120.239 111.8 121.373 114H104.273C103.206 112.267 101.973 110.367 100.573 108.3C99.2394 106.167 97.806 104.067 96.2727 102C94.7394 99.8667 93.106 97.8333 91.3727 95.9C89.706 93.9667 88.0394 92.3333 86.3727 91V114H71.4727V38.8L86.3727 36.4V80.4ZM174.97 87.6C174.97 91.7333 174.37 95.5333 173.17 99C171.97 102.4 170.236 105.333 167.97 107.8C165.703 110.2 162.97 112.067 159.77 113.4C156.636 114.733 153.103 115.4 149.17 115.4C145.303 115.4 141.77 114.733 138.57 113.4C135.436 112.067 132.736 110.2 130.47 107.8C128.203 105.333 126.436 102.4 125.17 99C123.903 95.5333 123.27 91.7333 123.27 87.6C123.27 83.4667 123.903 79.7 125.17 76.3C126.503 72.9 128.303 70 130.57 67.6C132.903 65.2 135.636 63.3333 138.77 62C141.97 60.6667 145.436 60 149.17 60C152.97 60 156.436 60.6667 159.57 62C162.77 63.3333 165.503 65.2 167.77 67.6C170.036 70 171.803 72.9 173.07 76.3C174.336 79.7 174.97 83.4667 174.97 87.6ZM159.77 87.6C159.77 83 158.836 79.4 156.97 76.8C155.17 74.1333 152.57 72.8 149.17 72.8C145.77 72.8 143.136 74.1333 141.27 76.8C139.403 79.4 138.47 83 138.47 87.6C138.47 92.2 139.403 95.8667 141.27 98.6C143.136 101.267 145.77 102.6 149.17 102.6C152.57 102.6 155.17 101.267 156.97 98.6C158.836 95.8667 159.77 92.2 159.77 87.6ZM199.212 87.3C199.212 91.9 200.245 95.6 202.312 98.4C204.378 101.2 207.445 102.6 211.512 102.6C212.845 102.6 214.078 102.567 215.212 102.5C216.345 102.367 217.278 102.233 218.012 102.1V75C217.078 74.4 215.845 73.9 214.312 73.5C212.845 73.1 211.345 72.9 209.812 72.9C202.745 72.9 199.212 77.7 199.212 87.3ZM232.912 112.3C231.578 112.7 230.045 113.1 228.312 113.5C226.578 113.833 224.745 114.133 222.812 114.4C220.945 114.667 219.012 114.867 217.012 115C215.078 115.2 213.212 115.3 211.412 115.3C207.078 115.3 203.212 114.667 199.812 113.4C196.412 112.133 193.545 110.333 191.212 108C188.878 105.6 187.078 102.733 185.812 99.4C184.612 96 184.012 92.2 184.012 88C184.012 83.7333 184.545 79.9 185.612 76.5C186.678 73.0333 188.212 70.1 190.212 67.7C192.212 65.3 194.645 63.4667 197.512 62.2C200.445 60.9333 203.778 60.3 207.512 60.3C209.578 60.3 211.412 60.5 213.012 60.9C214.678 61.3 216.345 61.8667 218.012 62.6V38.8L232.912 36.4V112.3Z" fill="#6366F1"/>
<path d="M369.252 79.5C369.252 74.0333 368.552 70.1 367.152 67.7C365.819 65.2333 363.285 64 359.552 64C358.219 64 356.752 64.1 355.152 64.3C353.552 64.5 352.352 64.6667 351.552 64.8V107H339.452V56.4C341.785 55.7333 344.819 55.1 348.552 54.5C352.352 53.9 356.352 53.6 360.552 53.6C364.152 53.6 367.085 54.0667 369.352 55C371.685 55.9333 373.619 57.1667 375.152 58.7C375.885 58.1667 376.819 57.6 377.952 57C379.085 56.4 380.352 55.8667 381.752 55.4C383.152 54.8667 384.619 54.4333 386.152 54.1C387.752 53.7667 389.352 53.6 390.952 53.6C395.019 53.6 398.352 54.2 400.952 55.4C403.619 56.5333 405.685 58.1667 407.152 60.3C408.685 62.3667 409.719 64.9 410.252 67.9C410.852 70.8333 411.152 74.0667 411.152 77.6V107H399.052V79.5C399.052 74.0333 398.385 70.1 397.052 67.7C395.719 65.2333 393.152 64 389.352 64C387.419 64 385.585 64.3333 383.852 65C382.119 65.6 380.819 66.2 379.952 66.8C380.485 68.4667 380.852 70.2333 381.052 72.1C381.252 73.9667 381.352 75.9667 381.352 78.1V107H369.252V79.5ZM473.275 80.8C473.275 84.9333 472.675 88.7 471.475 92.1C470.275 95.5 468.575 98.4 466.375 100.8C464.175 103.2 461.509 105.067 458.375 106.4C455.309 107.733 451.909 108.4 448.175 108.4C444.442 108.4 441.042 107.733 437.975 106.4C434.909 105.067 432.275 103.2 430.075 100.8C427.875 98.4 426.142 95.5 424.875 92.1C423.675 88.7 423.075 84.9333 423.075 80.8C423.075 76.6667 423.675 72.9333 424.875 69.6C426.142 66.2 427.875 63.3 430.075 60.9C432.342 58.5 435.009 56.6667 438.075 55.4C441.142 54.0667 444.509 53.4 448.175 53.4C451.842 53.4 455.209 54.0667 458.275 55.4C461.409 56.6667 464.075 58.5 466.275 60.9C468.475 63.3 470.175 66.2 471.375 69.6C472.642 72.9333 473.275 76.6667 473.275 80.8ZM460.875 80.8C460.875 75.6 459.742 71.5 457.475 68.5C455.275 65.4333 452.175 63.9 448.175 63.9C444.175 63.9 441.042 65.4333 438.775 68.5C436.575 71.5 435.475 75.6 435.475 80.8C435.475 86.0667 436.575 90.2333 438.775 93.3C441.042 96.3667 444.175 97.9 448.175 97.9C452.175 97.9 455.275 96.3667 457.475 93.3C459.742 90.2333 460.875 86.0667 460.875 80.8ZM520.441 80.7C520.441 75.5667 519.408 71.5 517.341 68.5C515.341 65.5 512.141 64 507.741 64C505.741 64 503.841 64.3 502.041 64.9C500.308 65.5 498.908 66.1667 497.841 66.9V97C498.708 97.2 499.808 97.4 501.141 97.6C502.541 97.7333 504.208 97.8 506.141 97.8C510.608 97.8 514.108 96.3 516.641 93.3C519.174 90.2333 520.441 86.0333 520.441 80.7ZM532.841 80.9C532.841 85.1 532.208 88.9 530.941 92.3C529.741 95.6333 527.974 98.5 525.641 100.9C523.374 103.3 520.608 105.133 517.341 106.4C514.074 107.667 510.374 108.3 506.241 108.3C502.241 108.3 498.408 108 494.741 107.4C491.141 106.8 488.141 106.133 485.741 105.4V31.4L497.841 29.4V56.5C499.241 55.7667 500.941 55.1 502.941 54.5C505.008 53.9 507.274 53.6 509.741 53.6C513.408 53.6 516.674 54.2667 519.541 55.6C522.474 56.8667 524.908 58.7 526.841 61.1C528.774 63.5 530.241 66.4 531.241 69.8C532.308 73.1333 532.841 76.8333 532.841 80.9ZM557.511 107H545.411V54.7H557.511V107ZM558.811 39.4C558.811 41.6667 558.078 43.4667 556.611 44.8C555.145 46.1333 553.411 46.8 551.411 46.8C549.345 46.8 547.578 46.1333 546.111 44.8C544.645 43.4667 543.911 41.6667 543.911 39.4C543.911 37.0667 544.645 35.2333 546.111 33.9C547.578 32.5667 549.345 31.9 551.411 31.9C553.411 31.9 555.145 32.5667 556.611 33.9C558.078 35.2333 558.811 37.0667 558.811 39.4Z" fill="#6366F1"/>
</svg>
