<svg width="16" height="16" viewBox="0 0 16 16" fill="none" xmlns="http://www.w3.org/2000/svg">
<path d="M15.2725 14.085L11.3457 10.1592C12.1955 9.11914 12.6644 7.80957 12.6644 6.37988C12.6644 3.01367 9.93525 0.286133 6.56902 0.286133C3.20278 0.286133 0.5 3.01455 0.5 6.37988C0.5 9.74521 3.22886 12.4736 6.56902 12.4736C7.9988 12.4736 9.31048 11.9782 10.3493 11.1541L14.2762 15.0799C14.4403 15.2188 14.622 15.2861 14.8007 15.2861C14.9795 15.2861 15.1606 15.2175 15.298 15.0801C15.5714 14.8057 15.5714 14.3604 15.2725 14.085ZM1.90663 6.37988C1.90663 3.79531 4.01013 1.69238 6.59539 1.69238C9.18066 1.69238 11.2842 3.79531 11.2842 6.37988C11.2842 8.96445 9.18066 11.0674 6.59539 11.0674C4.01013 11.0674 1.90663 8.96387 1.90663 6.37988Z" fill="#9E9E9E"/>
</svg>
